<svg width="86" height="85" viewBox="0 0 86 85" fill="none" xmlns="http://www.w3.org/2000/svg">
<path d="M26.2078 9.44028C26.343 10.0484 26.6814 10.5924 27.1671 10.9825C27.6529 11.3727 28.257 11.5857 28.88 11.5865C29.08 11.5863 29.2795 11.5649 29.475 11.5228C30.1846 11.3641 30.8023 10.9305 31.1927 10.317C31.5831 9.70355 31.7143 8.96032 31.5575 8.25028L30.1975 2.14091C30.0097 1.46382 29.5692 0.884675 28.9667 0.523058C28.3643 0.161441 27.646 0.044964 26.9601 0.197677C26.2743 0.350389 25.6733 0.760631 25.2812 1.3437C24.8891 1.92676 24.7358 2.63812 24.8531 3.33091L26.2078 9.44028ZM6.43469 18.7797L11.7153 22.1425C12.3276 22.504 13.0564 22.6134 13.7478 22.4477C14.4393 22.282 15.0393 21.8541 15.4212 21.2543C15.8032 20.6546 15.9371 19.9299 15.7948 19.2332C15.6524 18.5366 15.245 17.9225 14.6584 17.5206L9.37781 14.1578C8.76552 13.7963 8.03673 13.6868 7.34527 13.8525C6.65381 14.0182 6.05379 14.4461 5.67187 15.0459C5.28995 15.6457 5.15602 16.3704 5.29835 17.067C5.44068 17.7637 5.84812 18.3778 6.43469 18.7797ZM4.33625 42.7284L10.4456 41.3684C10.7972 41.2906 11.1301 41.1443 11.4252 40.9379C11.7202 40.7315 11.9718 40.469 12.1654 40.1653C12.359 39.8617 12.491 39.5229 12.5536 39.1683C12.6163 38.8137 12.6086 38.4502 12.5308 38.0986C12.453 37.747 12.3067 37.4141 12.1003 37.119C11.8939 36.8239 11.6313 36.5724 11.3277 36.3788C11.0241 36.1852 10.6853 36.0532 10.3307 35.9905C9.97604 35.9279 9.61255 35.9356 9.26093 36.0134L3.15156 37.3734C2.49127 37.5183 1.90782 37.9022 1.5133 38.4511C1.11878 39.0001 0.941008 39.6754 1.01414 40.3475C1.08728 41.0195 1.40616 41.6408 1.90952 42.0921C2.41289 42.5433 3.06524 42.7926 3.74125 42.7922C3.94127 42.7919 4.14071 42.7705 4.33625 42.7284ZM58.7256 30.6159C58.9256 30.6157 59.1251 30.5943 59.3206 30.5522L65.43 29.1922C65.7816 29.114 66.1144 28.9674 66.4093 28.7607C66.7043 28.5539 66.9556 28.2911 67.149 27.9872C67.3424 27.6833 67.474 27.3443 67.5364 26.9896C67.5987 26.6348 67.5906 26.2713 67.5125 25.9197C67.4344 25.568 67.2877 25.2353 67.081 24.9403C66.8742 24.6454 66.6114 24.394 66.3075 24.2007C66.0037 24.0073 65.6647 23.8756 65.3099 23.8133C64.9552 23.7509 64.5916 23.759 64.24 23.8372L58.1306 25.1972C57.4699 25.3422 56.8861 25.7264 56.4916 26.2759C56.097 26.8254 55.9196 27.5014 55.9934 28.1739C56.0673 28.8463 56.3872 29.4677 56.8915 29.9185C57.3959 30.3693 58.0491 30.6177 58.7256 30.6159ZM46.2731 14.4925C46.8861 14.8823 47.6288 15.0129 48.3381 14.8555C49.0473 14.6982 49.6651 14.2657 50.0556 13.6531L53.4184 8.37247C53.7799 7.76019 53.8894 7.03139 53.7237 6.33993C53.558 5.64847 53.1301 5.04845 52.5303 4.66653C51.9305 4.28462 51.2058 4.15068 50.5092 4.29301C49.8125 4.43534 49.1985 4.84279 48.7966 5.42935L45.4337 10.71C45.0439 11.323 44.9133 12.0657 45.0707 12.7749C45.2281 13.4842 45.6605 14.1019 46.2731 14.4925ZM15.9759 37.3575C16.354 38.9694 16.9454 40.5237 17.7344 41.9793C19.4738 41.391 21.1038 40.5185 22.5581 39.3975C22.0057 38.3803 21.5912 37.2941 21.3256 36.1675C20.5594 32.724 21.1924 29.1172 23.0853 26.1403C24.9782 23.1635 27.976 21.0604 31.4194 20.2937C33.1246 19.9114 34.8885 19.8694 36.6099 20.1701C38.3314 20.4708 39.9766 21.1082 41.4512 22.0459C42.9259 22.9836 44.201 24.2031 45.2035 25.6345C46.2059 27.0659 46.916 28.6811 47.2931 30.3875L47.3144 30.5893C49.2385 30.8405 51.1323 31.2854 52.9669 31.9175C52.9257 31.0041 52.8174 30.095 52.6428 29.1975C51.5607 24.3351 48.5914 20.1018 44.3881 17.4288C40.1847 14.7557 35.0917 13.862 30.2294 14.944C25.367 16.0261 21.1337 18.9954 18.4607 23.1988C15.7876 27.4021 14.8939 32.4951 15.9759 37.3575Z" fill="white"/>
<path d="M64.7203 76.4773C60.1523 81.6885 53.308 85 45.6581 85C38.1581 85 31.4325 81.8171 26.8671 76.7815C25.1341 77.4564 23.2392 77.8281 21.2539 77.8281C13.002 77.8281 6.3125 71.4062 6.3125 63.4844C6.3125 55.5625 13.002 49.1406 21.2539 49.1406C22.174 49.1406 23.0747 49.2205 23.9488 49.3733C28.219 42.0996 36.341 37.1875 45.6581 37.1875C55.0531 37.1875 63.2329 42.182 67.4736 49.5562C68.6221 49.2847 69.8228 49.1406 71.0586 49.1406C79.3105 49.1406 86 55.5625 86 63.4844C86 71.4062 79.3105 77.8281 71.0586 77.8281C68.7926 77.8281 66.6445 77.3439 64.7203 76.4773Z" fill="white"/>
</svg>
