<svg width="185" height="185" viewBox="0 0 185 185" fill="none" xmlns="http://www.w3.org/2000/svg">
<path d="M135.598 164.39C124.993 176.992 109.103 185 91.3435 185C73.9318 185 58.3179 177.303 47.7189 165.125C43.6955 166.757 39.2965 167.656 34.6875 167.656C15.5301 167.656 0 152.126 0 132.969C0 113.811 15.5301 98.2812 34.6875 98.2812C36.8236 98.2812 38.9146 98.4743 40.944 98.844C50.8575 81.2539 69.7133 69.375 91.3435 69.375C113.155 69.375 132.145 81.4533 141.99 99.2862C144.656 98.6296 147.444 98.2812 150.312 98.2812C169.47 98.2812 185 113.811 185 132.969C185 152.126 169.47 167.656 150.312 167.656C145.052 167.656 140.065 166.485 135.598 164.39Z" fill="white"/>
<path d="M46.3425 76.7351C46.5735 72.1652 48.5492 67.8583 51.8623 64.7023C55.1753 61.5462 59.5731 59.7818 64.1487 59.7729C64.5674 59.7943 64.9844 59.8407 65.3975 59.9116L66.3687 60.0504C68.5168 60.3189 70.6972 59.979 72.6616 59.0694C74.626 58.1597 76.2956 56.7169 77.4803 54.9051C80.3551 50.4716 84.293 46.8275 88.9358 44.3046C93.5785 41.7817 98.7786 40.4601 104.062 40.4601C109.346 40.4601 114.546 41.7817 119.189 44.3046C123.832 46.8275 127.77 50.4716 130.645 54.9051C131.829 56.7169 133.499 58.1597 135.463 59.0694C137.428 59.979 139.608 60.3189 141.756 60.0504L142.727 59.9116C143.141 59.8408 143.558 59.7945 143.976 59.7729C146.835 59.7279 149.662 60.3793 152.213 61.6708C154.764 62.9624 156.963 64.8554 158.619 67.1863C160.275 69.5173 161.339 72.2162 161.719 75.0502C162.099 77.8841 161.783 80.768 160.8 83.4529C164.408 85.0142 167.761 87.1114 170.743 89.6735C173.095 84.9364 174.093 79.642 173.627 74.374C173.161 69.106 171.25 64.0689 168.104 59.8179C164.957 55.5669 160.699 52.2671 155.797 50.2822C150.895 48.2973 145.54 47.7044 140.322 48.5688C136.395 42.5323 131.023 37.5721 124.693 34.1384C118.363 30.7047 111.275 28.9062 104.074 28.9062C96.8726 28.9063 89.7852 30.7047 83.4551 34.1384C77.125 37.5721 71.7526 42.5323 67.8256 48.5688C66.6129 48.3679 65.3887 48.2443 64.1603 48.1988C60.2904 48.1973 56.4582 48.9582 52.8824 50.4381C49.3067 51.918 46.0575 54.0878 43.3206 56.8237C40.5836 59.5596 38.4125 62.8079 36.9312 66.3831C35.4499 69.9582 34.6875 73.7902 34.6875 77.6601C34.7412 79.6753 35.0086 81.6791 35.4853 83.6379C38.2336 80.1853 42.0607 77.7547 46.3541 76.7351H46.3425Z" fill="white"/>
</svg>
