<svg width="85" height="85" viewBox="0 0 85 85" fill="none" xmlns="http://www.w3.org/2000/svg">
<path d="M5.3125 66.4062C5.3125 67.8152 5.87221 69.1665 6.8685 70.1628C7.86478 71.159 9.21604 71.7188 10.625 71.7188C12.034 71.7188 13.3852 71.159 14.3815 70.1628C15.3778 69.1665 15.9375 67.8152 15.9375 66.4062C15.9375 63.75 12.9868 58.9952 10.625 55.7812C8.26318 58.9952 5.3125 63.75 5.3125 66.4062Z" fill="white"/>
<path d="M26.5625 79.6875C26.5625 81.0965 27.1222 82.4477 28.1185 83.444C29.1148 84.4403 30.466 85 31.875 85C33.284 85 34.6352 84.4403 35.6315 83.444C36.6278 82.4477 37.1875 81.0965 37.1875 79.6875C37.1875 77.0312 34.2368 72.2765 31.875 69.0625C29.5132 72.2765 26.5625 77.0312 26.5625 79.6875Z" fill="white"/>
<path d="M49.3685 83.444C48.3722 82.4477 47.8125 81.0965 47.8125 79.6875C47.8125 77.0312 50.7632 72.2765 53.125 69.0625C55.4868 72.2765 58.4375 77.0312 58.4375 79.6875C58.4375 81.0965 57.8778 82.4477 56.8815 83.444C55.8852 84.4403 54.534 85 53.125 85C51.716 85 50.3648 84.4403 49.3685 83.444Z" fill="white"/>
<path d="M69.0625 66.4062C69.0625 67.8152 69.6222 69.1665 70.6185 70.1628C71.6148 71.159 72.966 71.7188 74.375 71.7188C75.784 71.7188 77.1352 71.159 78.1315 70.1628C79.1278 69.1665 79.6875 67.8152 79.6875 66.4062C79.6875 63.75 76.7368 58.9952 74.375 55.7812C72.0132 58.9952 69.0625 63.75 69.0625 66.4062Z" fill="white"/>
<path d="M62.3017 43.6554C57.4291 49.4456 50.1286 53.125 41.9687 53.125C33.9687 53.125 26.7947 49.5884 21.9249 43.9934C20.0763 44.7432 18.0552 45.1562 15.9375 45.1562C7.13546 45.1562 0 38.0208 0 29.2188C0 20.4167 7.13546 13.2812 15.9375 13.2812C16.9189 13.2812 17.8797 13.37 18.8121 13.5398C23.367 5.45789 32.0304 0 41.9687 0C51.9899 0 60.7151 5.54949 65.2385 13.743C66.4636 13.4413 67.7443 13.2812 69.0625 13.2812C77.8645 13.2812 85 20.4167 85 29.2188C85 38.0208 77.8645 45.1562 69.0625 45.1562C66.6455 45.1562 64.3542 44.6182 62.3017 43.6554Z" fill="white"/>
</svg>
