<svg width="47" height="47" viewBox="0 0 47 47" fill="none" xmlns="http://www.w3.org/2000/svg">
<path d="M4.40915 29.375C3.84133 29.375 3.38102 29.8353 3.38102 30.4031V32.0005L1.99767 31.2018C1.50592 30.9179 0.877133 31.0864 0.59322 31.5781C0.309313 32.0699 0.477796 32.6987 0.96954 32.9826L2.35289 33.7812L0.96954 34.5799C0.477796 34.8638 0.309313 35.4926 0.59322 35.9844C0.877133 36.4761 1.50592 36.6446 1.99767 36.3607L3.38102 35.562V37.1594C3.38102 37.7272 3.84133 38.1875 4.40915 38.1875C4.97697 38.1875 5.43728 37.7272 5.43728 37.1594V35.562L6.82063 36.3607C7.31237 36.6446 7.94116 36.4761 8.22507 35.9844C8.50898 35.4926 8.3405 34.8638 7.84875 34.5799L6.46541 33.7812L7.84875 32.9826C8.3405 32.6987 8.50898 32.0699 8.22507 31.5781C7.94116 31.0864 7.31237 30.9179 6.82063 31.2018L5.43728 32.0005V30.4031C5.43728 29.8353 4.97697 29.375 4.40915 29.375Z" fill="white"/>
<path d="M41.5685 30.4031C41.5685 29.8353 42.0288 29.375 42.5967 29.375C43.1645 29.375 43.6248 29.8353 43.6248 30.4031V32.0005L45.0081 31.2018C45.4999 30.9179 46.1287 31.0864 46.4126 31.5781C46.6965 32.0699 46.528 32.6987 46.0362 32.9826L44.6529 33.7812L46.0363 34.5799C46.528 34.8638 46.6965 35.4926 46.4126 35.9844C46.1287 36.4761 45.4999 36.6446 45.0081 36.3607L43.6248 35.562V37.1594C43.6248 37.7272 43.1645 38.1875 42.5967 38.1875C42.0288 38.1875 41.5685 37.7272 41.5685 37.1594V35.562L40.1852 36.3607C39.6934 36.6446 39.0646 36.4761 38.7807 35.9844C38.4968 35.4926 38.6653 34.8638 39.157 34.5799L40.5404 33.7812L39.157 32.9826C38.6653 32.6987 38.4968 32.0699 38.7807 31.5781C39.0646 31.0864 39.6934 30.9179 40.1852 31.2018L41.5685 32.0005V30.4031Z" fill="white"/>
<path d="M22.4748 39.2156C22.4748 38.6478 22.9351 38.1875 23.5029 38.1875C24.0707 38.1875 24.531 38.6478 24.531 39.2156V40.813L25.9144 40.0143C26.4061 39.7304 27.0349 39.8989 27.3188 40.3906C27.6027 40.8824 27.4342 41.5112 26.9425 41.7951L25.5592 42.5938L26.9425 43.3924C27.4342 43.6763 27.6027 44.3051 27.3188 44.7969C27.0349 45.2886 26.4061 45.4571 25.9144 45.1732L24.531 44.3745V45.9719C24.531 46.5397 24.0707 47 23.5029 47C22.9351 47 22.4748 46.5397 22.4748 45.9719V44.3745L21.0914 45.1732C20.5997 45.4571 19.9709 45.2886 19.687 44.7969C19.4031 44.3051 19.5715 43.6763 20.0633 43.3924L21.4466 42.5938L20.0633 41.7951C19.5715 41.5112 19.4031 40.8824 19.687 40.3906C19.9709 39.8989 20.5997 39.7304 21.0914 40.0143L22.4748 40.813V39.2156Z" fill="white"/>
<path d="M12.1935 36.2781C12.1935 35.7103 12.6538 35.25 13.2216 35.25C13.7895 35.25 14.2498 35.7103 14.2498 36.2781V37.8755L15.6331 37.0768C16.1249 36.7929 16.7537 36.9614 17.0376 37.4531C17.3215 37.9449 17.153 38.5737 16.6612 38.8576L15.2779 39.6562L16.6613 40.4549C17.153 40.7388 17.3215 41.3676 17.0376 41.8594C16.7537 42.3511 16.1249 42.5196 15.6331 42.2357L14.2498 41.437V43.0344C14.2498 43.6022 13.7895 44.0625 13.2216 44.0625C12.6538 44.0625 12.1935 43.6022 12.1935 43.0344V41.437L10.8102 42.2357C10.3184 42.5196 9.68963 42.3511 9.40572 41.8594C9.12181 41.3676 9.2903 40.7388 9.78204 40.4549L11.1654 39.6562L9.78204 38.8576C9.2903 38.5737 9.12181 37.9449 9.40572 37.4531C9.68963 36.9614 10.3184 36.7929 10.8102 37.0768L12.1935 37.8755V36.2781Z" fill="white"/>
<path d="M33.7842 35.25C33.2163 35.25 32.756 35.7103 32.756 36.2781V37.8755L31.3727 37.0768C30.8809 36.7929 30.2521 36.9614 29.9682 37.4531C29.6843 37.9449 29.8528 38.5737 30.3445 38.8576L31.7279 39.6562L30.3445 40.4549C29.8528 40.7388 29.6843 41.3676 29.9682 41.8594C30.2521 42.3511 30.8809 42.5196 31.3727 42.2357L32.756 41.437V43.0344C32.756 43.6022 33.2163 44.0625 33.7842 44.0625C34.352 44.0625 34.8123 43.6022 34.8123 43.0344V41.437L36.1956 42.2357C36.6874 42.5196 37.3162 42.3511 37.6001 41.8594C37.884 41.3676 37.7155 40.7388 37.2238 40.4549L35.8404 39.6562L37.2237 38.8576C37.7155 38.5737 37.884 37.9449 37.6001 37.4531C37.3162 36.9614 36.6874 36.7929 36.1956 37.0768L34.8123 37.8755V36.2781C34.8123 35.7103 34.352 35.25 33.7842 35.25Z" fill="white"/>
<path d="M34.4492 24.1388C31.7549 27.3405 27.7182 29.375 23.2062 29.375C18.7827 29.375 14.8159 27.4195 12.1232 24.3257C11.101 24.7404 9.98344 24.9688 8.8125 24.9688C3.94549 24.9688 0 21.0233 0 16.1562C0 11.2892 3.94549 7.34375 8.8125 7.34375C9.35518 7.34375 9.88641 7.3928 10.402 7.48672C12.9206 3.01789 17.7109 0 23.2062 0C28.7474 0 33.5719 3.06854 36.0731 7.59906C36.7504 7.43224 37.4586 7.34375 38.1875 7.34375C43.0545 7.34375 47 11.2892 47 16.1562C47 21.0233 43.0545 24.9688 38.1875 24.9688C36.851 24.9688 35.5841 24.6712 34.4492 24.1388Z" fill="white"/>
</svg>
