<svg width="66" height="65" viewBox="0 0 66 65" fill="none" xmlns="http://www.w3.org/2000/svg">
<path d="M32.5203 14.2188C28.9046 14.2188 25.3701 15.2909 22.3638 17.2997C19.3574 19.3085 17.0143 22.1636 15.6306 25.5041C14.247 28.8445 13.8849 32.5203 14.5903 36.0665C15.2957 39.6127 17.0368 42.8701 19.5935 45.4268C22.1502 47.9835 25.4076 49.7246 28.9538 50.43C32.5 51.1354 36.1758 50.7733 39.5162 49.3897C42.8567 48.006 45.7118 45.6629 47.7206 42.6565C49.7294 39.6502 50.8016 36.1157 50.8016 32.5C50.8016 27.6515 48.8755 23.0016 45.4471 19.5732C42.0187 16.1448 37.3688 14.2188 32.5203 14.2188Z" fill="white"/>
<path d="M32.5366 10.1685C31.9976 10.1685 31.4808 9.95445 31.0997 9.57352C30.7186 9.19258 30.5045 8.67593 30.5045 8.13721V2.04346C30.5045 1.50474 30.7186 0.98808 31.0997 0.607146C31.4808 0.226213 31.9976 0.012207 32.5366 0.012207C33.0755 0.012207 33.5923 0.226213 33.9734 0.607146C34.3545 0.98808 34.5686 1.50474 34.5686 2.04346V8.13721C34.5686 8.67593 34.3545 9.19258 33.9734 9.57352C33.5923 9.95445 33.0755 10.1685 32.5366 10.1685ZM15.301 17.286C15.0343 17.2858 14.7703 17.233 14.5241 17.1305C14.2779 17.028 14.0544 16.8779 13.8664 16.6888L9.55044 12.3825C9.18029 11.9994 8.97548 11.4863 8.98011 10.9537C8.98474 10.4211 9.19844 9.91169 9.57519 9.53508C9.95195 9.15847 10.4616 8.94484 10.9944 8.94021C11.5272 8.93559 12.0405 9.14032 12.4237 9.51033L16.7438 13.8125C17.0287 14.0966 17.2228 14.4589 17.3015 14.8534C17.3802 15.2479 17.34 15.6569 17.1859 16.0285C17.0318 16.4001 16.7708 16.7176 16.4359 16.9407C16.1011 17.1639 15.7075 17.2826 15.3051 17.2819L15.301 17.286ZM8.14022 34.5028H2.04419C1.50527 34.5028 0.988415 34.2888 0.607339 33.9079C0.226263 33.527 0.0121765 33.0103 0.0121765 32.4716C0.0121765 31.9329 0.226263 31.4162 0.607339 31.0353C0.988415 30.6543 1.50527 30.4403 2.04419 30.4403H8.14022C8.67915 30.4403 9.196 30.6543 9.57707 31.0353C9.95815 31.4162 10.1722 31.9329 10.1722 32.4716C10.1722 33.0103 9.95815 33.527 9.57707 33.9079C9.196 34.2888 8.67915 34.5028 8.14022 34.5028ZM10.9485 56.0463C10.546 56.047 10.1525 55.9282 9.81764 55.7051C9.48281 55.482 9.2218 55.1644 9.0677 54.7928C8.9136 54.4212 8.87335 54.0122 8.95206 53.6177C9.03077 53.2232 9.22488 52.861 9.5098 52.5769L13.8258 48.2706C14.209 47.9006 14.7223 47.6959 15.2551 47.7005C15.7879 47.7052 16.2976 47.9188 16.6743 48.2954C17.0511 48.672 17.2648 49.1815 17.2694 49.714C17.274 50.2466 17.0692 50.7597 16.6991 51.1428L12.3831 55.4491C12.1951 55.6382 11.9716 55.7883 11.7254 55.8908C11.4792 55.9933 11.2152 56.0461 10.9485 56.0463V56.0463ZM32.4837 64.9878C31.9448 64.9878 31.428 64.7738 31.0469 64.3929C30.6658 64.012 30.4517 63.4953 30.4517 62.9566V56.8628C30.4517 56.3241 30.6658 55.8075 31.0469 55.4265C31.428 55.0456 31.9448 54.8316 32.4837 54.8316C33.0227 54.8316 33.5395 55.0456 33.9206 55.4265C34.3017 55.8075 34.5157 56.3241 34.5157 56.8628V62.9566C34.5157 63.4953 34.3017 64.012 33.9206 64.3929C33.5395 64.7738 33.0227 64.9878 32.4837 64.9878ZM54.0312 56.0869C53.7645 56.0867 53.5005 56.0339 53.2543 55.9314C53.0081 55.8289 52.7846 55.6788 52.5966 55.4897L48.2887 51.1835C48.087 50.9982 47.9249 50.774 47.8121 50.5245C47.6993 50.275 47.6381 50.0052 47.6322 49.7314C47.6264 49.4577 47.6759 49.1855 47.7779 48.9314C47.88 48.6773 48.0323 48.4464 48.2259 48.2526C48.4195 48.0589 48.6502 47.9062 48.9043 47.8039C49.1584 47.7015 49.4305 47.6516 49.7044 47.6571C49.9783 47.6626 50.2482 47.7233 50.498 47.8358C50.7478 47.9482 50.9723 48.1099 51.1579 48.3113L55.4658 52.6175C55.7505 52.9014 55.9445 53.2632 56.0233 53.6574C56.1022 54.0515 56.0622 54.4601 55.9087 54.8316C55.7551 55.203 55.4947 55.5206 55.1605 55.744C54.8263 55.9675 54.4333 56.0868 54.0312 56.0869V56.0869ZM62.9802 34.5597H56.8841C56.3452 34.5597 55.8284 34.3457 55.4473 33.9648C55.0662 33.5838 54.8521 33.0672 54.8521 32.5285C54.8521 31.9897 55.0662 31.4731 55.4473 31.0921C55.8284 30.7112 56.3452 30.4972 56.8841 30.4972H62.9802C63.5191 30.4972 64.0359 30.7112 64.417 31.0921C64.7981 31.4731 65.0122 31.9897 65.0122 32.5285C65.0122 33.0672 64.7981 33.5838 64.417 33.9648C64.0359 34.3457 63.5191 34.5597 62.9802 34.5597ZM49.764 17.3266C49.3615 17.3273 48.968 17.2086 48.6331 16.9854C48.2983 16.7623 48.0373 16.4448 47.8832 16.0732C47.7291 15.7015 47.6888 15.2926 47.7676 14.8981C47.8463 14.5036 48.0404 14.1413 48.3253 13.8572L52.6332 9.55096C52.8218 9.3621 53.0458 9.21224 53.2924 9.10993C53.539 9.00762 53.8034 8.95486 54.0704 8.95467C54.3374 8.95448 54.6018 9.00686 54.8485 9.10883C55.0953 9.21079 55.3195 9.36034 55.5085 9.54893C55.6974 9.73752 55.8473 9.96146 55.9497 10.208C56.052 10.4545 56.1048 10.7187 56.105 10.9856C56.1052 11.2525 56.0528 11.5168 55.9508 11.7635C55.8488 12.0101 55.6991 12.2343 55.5105 12.4231L51.2026 16.7294C51.0142 16.919 50.79 17.0694 50.5431 17.1719C50.2961 17.2744 50.0313 17.327 49.764 17.3266V17.3266Z" fill="white"/>
</svg>
