<svg width="16" height="16" viewBox="0 0 16 16" fill="none" xmlns="http://www.w3.org/2000/svg">
<path d="M11.7274 8.21748C10.8102 9.3074 9.43597 10 7.89998 10C6.3941 10 5.04371 9.33429 4.12704 8.2811C3.77907 8.42226 3.39862 8.5 3 8.5C1.34315 8.5 0 7.15685 0 5.5C0 3.84315 1.34315 2.5 3 2.5C3.18474 2.5 3.36559 2.5167 3.5411 2.54867C4.39849 1.02737 6.02926 0 7.89998 0C9.78634 0 11.4287 1.04461 12.2802 2.58691C12.5108 2.53012 12.7519 2.5 13 2.5C14.6569 2.5 16 3.84315 16 5.5C16 7.15685 14.6569 8.5 13 8.5C12.545 8.5 12.1137 8.39872 11.7274 8.21748Z" fill="black"/>
<path d="M3 13C3 13.2652 3.10536 13.5196 3.29289 13.7071C3.48043 13.8946 3.73478 14 4 14C4.26522 14 4.51957 13.8946 4.70711 13.7071C4.89464 13.5196 5 13.2652 5 13C5 12.5 4.44458 11.605 4 11C3.55542 11.605 3 12.5 3 13Z" fill="black"/>
<path d="M13 12.5C13 13.0523 12.5523 13.5 12 13.5C11.4477 13.5 11 13.0523 11 12.5C11 11.9477 11.4477 11.5 12 11.5C12.5523 11.5 13 11.9477 13 12.5Z" fill="black"/>
<path d="M8.4596 12.626C8.40607 12.626 8.371 12.5758 8.395 12.5326L9.18687 11.0945C9.21086 11.0512 9.17579 11 9.12226 11H7.54406C7.51743 10.9994 7.49111 11.0062 7.46766 11.0196C7.4442 11.033 7.42442 11.0527 7.41023 11.0768L6.01292 13.7139C5.97139 13.7926 6.03507 13.8831 6.13106 13.8831H7.55144C7.60128 13.8831 7.63543 13.9274 7.61974 13.9697L6.8814 15.9133C6.85371 15.9822 6.95339 16.0314 7.00507 15.9763L9.98335 12.7332C10.0221 12.6909 9.98889 12.626 9.92798 12.626H8.4596Z" fill="black"/>
</svg>
