<svg width="60" height="60" viewBox="0 0 60 60" fill="none" xmlns="http://www.w3.org/2000/svg">
<path d="M16.0984 55.1517C15.3951 54.4484 15 53.4946 15 52.5C15 50.625 17.0828 47.2687 18.75 45C20.4172 47.2687 22.5 50.625 22.5 52.5C22.5 53.4946 22.1049 54.4484 21.4016 55.1517C20.6984 55.8549 19.7446 56.25 18.75 56.25C17.7554 56.25 16.8016 55.8549 16.0984 55.1517Z" fill="white"/>
<path d="M42.3484 55.1517C41.6451 54.4484 41.25 53.4946 41.25 52.5C41.25 50.625 43.3328 47.2687 45 45C46.6672 47.2687 48.75 50.625 48.75 52.5C48.75 53.4946 48.3549 54.4484 47.6516 55.1517C46.9484 55.8549 45.9946 56.25 45 56.25C44.0054 56.25 43.0516 55.8549 42.3484 55.1517Z" fill="white"/>
<path d="M28.125 56.25C28.125 57.2446 28.5201 58.1984 29.2234 58.9017C29.9266 59.6049 30.8804 60 31.875 60C32.8696 60 33.8234 59.6049 34.5266 58.9017C35.2299 58.1984 35.625 57.2446 35.625 56.25C35.625 54.375 33.5422 51.0187 31.875 48.75C30.2078 51.0187 28.125 54.375 28.125 56.25Z" fill="white"/>
<path d="M45.1844 40.4031L44.847 40.2511L44.6031 40.5294C41.4721 44.1012 36.7771 46.375 31.5234 46.375C26.3726 46.375 21.7589 44.1895 18.6295 40.7379L18.3984 40.4829L18.0777 40.6078C16.9115 41.0619 15.6355 41.3125 14.2969 41.3125C8.72871 41.3125 4.25 36.9842 4.25 31.6875C4.25 26.3908 8.72871 22.0625 14.2969 22.0625C14.9174 22.0625 15.5244 22.1163 16.1131 22.2193L16.4548 22.279L16.6304 21.9799C19.555 16.9981 25.1243 13.625 31.5234 13.625C37.9759 13.625 43.5847 17.0547 46.4891 22.1051L46.6749 22.4282L47.0376 22.3424C47.8108 22.1596 48.6198 22.0625 49.4531 22.0625C55.0213 22.0625 59.5 26.3908 59.5 31.6875C59.5 36.9842 55.0213 41.3125 49.4531 41.3125C47.9254 41.3125 46.4789 40.9861 45.1844 40.4031Z" stroke="black"/>
<path d="M18.6713 7.14H18.6975C19.1942 7.13308 19.6678 6.92939 20.0144 6.57364C20.361 6.21789 20.5523 5.73915 20.5463 5.2425L20.5013 1.84875C20.4944 1.35603 20.2938 0.885835 19.9429 0.539862C19.592 0.193888 19.1191 -4.82844e-05 18.6263 9.01722e-09H18.6C18.1034 0.00691728 17.6298 0.210606 17.2832 0.566357C16.9366 0.922107 16.7453 1.40085 16.7513 1.8975L16.7963 5.2875C16.8022 5.78087 17.0024 6.25202 17.3534 6.5988C17.7043 6.94558 18.1779 7.14003 18.6713 7.14ZM7.82628 10.6875C8.00187 10.8628 8.2105 11.0015 8.44007 11.0955C8.66965 11.1896 8.9156 11.2371 9.16369 11.2354C9.41178 11.2338 9.65707 11.1828 9.88534 11.0857C10.1136 10.9885 10.3203 10.847 10.4935 10.6693C10.6667 10.4917 10.8029 10.2814 10.8942 10.0508C10.9856 9.82008 11.0302 9.57358 11.0256 9.32553C11.021 9.07748 10.9672 8.83281 10.8673 8.6057C10.7674 8.3786 10.6235 8.17357 10.4438 8.0025L8.01378 5.64C7.84127 5.45245 7.63233 5.30203 7.39974 5.19793C7.16714 5.09383 6.91577 5.03824 6.66097 5.03454C6.40617 5.03085 6.15329 5.07913 5.91777 5.17644C5.68226 5.27376 5.46905 5.41805 5.29117 5.60053C5.11329 5.783 4.97448 5.99982 4.8832 6.23774C4.79192 6.47566 4.7501 6.72968 4.76029 6.98431C4.77048 7.23893 4.83246 7.48881 4.94245 7.71867C5.05245 7.94854 5.20814 8.15357 5.40003 8.32125L7.82628 10.6875ZM7.15503 18.9487C7.14911 18.4554 6.94896 17.9842 6.59797 17.6374C6.24698 17.2907 5.77344 17.0962 5.28003 17.0962H5.25378L1.86378 17.1412C1.3665 17.1442 0.890774 17.3446 0.541254 17.6984C0.191733 18.0521 -0.00294989 18.5302 3.37965e-05 19.0275C0.00301748 19.5248 0.203423 20.0005 0.557164 20.35C0.910904 20.6996 1.389 20.8942 1.88628 20.8912H1.91253L5.30628 20.8462C5.80292 20.8393 6.27652 20.6356 6.62314 20.2799C6.96975 19.9241 7.16104 19.4454 7.15503 18.9487ZM28.2975 10.995C28.5481 10.996 28.7964 10.9467 29.0276 10.8501C29.2588 10.7535 29.4684 10.6115 29.6438 10.4325L32.0063 8.0025C32.3465 7.64512 32.5322 7.16803 32.523 6.67468C32.5138 6.18132 32.3105 5.71149 31.9571 5.36704C31.6038 5.0226 31.1289 4.83132 30.6355 4.83468C30.1421 4.83804 29.6699 5.03577 29.3213 5.385L26.955 7.81125C26.6964 8.07515 26.5214 8.40961 26.4522 8.77261C26.383 9.13562 26.4226 9.51097 26.5661 9.85154C26.7095 10.1921 26.9504 10.4827 27.2584 10.6868C27.5665 10.8909 27.928 10.9994 28.2975 10.9987V10.995ZM8.45253 19.9312C9.66356 19.3815 10.9505 19.0174 12.27 18.8512C12.4779 17.195 13.282 15.6712 14.5319 14.5648C15.7819 13.4584 17.392 12.8452 19.0613 12.84C19.7667 12.849 20.4663 12.9679 21.135 13.1925C22.6608 12.4703 24.2783 11.9605 25.9425 11.6775C24.4074 10.3431 22.5201 9.47972 20.5067 9.19086C18.4933 8.902 16.4393 9.19991 14.5909 10.0489C12.7426 10.8979 11.1783 12.2619 10.0855 13.9774C8.9928 15.693 8.418 17.6873 8.43003 19.7212C8.43003 19.7962 8.45253 19.86 8.45253 19.9312Z" fill="white"/>
</svg>
