<svg width="18" height="18" viewBox="0 0 18 18" fill="none" xmlns="http://www.w3.org/2000/svg">
<path d="M6.06801 0.228016C4.70451 0.0756262 3.29547 0.0756262 1.93198 0.228016C1.0548 0.326054 0.345496 1.01681 0.242053 1.90124C0.0789632 3.29566 0.0789633 4.70434 0.242053 6.09875C0.345496 6.98319 1.0548 7.67394 1.93198 7.77198C3.29547 7.92437 4.70451 7.92437 6.06801 7.77198C6.94519 7.67394 7.65449 6.98319 7.75793 6.09875C7.92102 4.70434 7.92102 3.29566 7.75793 1.90124C7.65449 1.01681 6.94519 0.326054 6.06801 0.228016Z" fill="white"/>
<path d="M6.06801 10.228C4.70451 10.0756 3.29547 10.0756 1.93198 10.228C1.0548 10.3261 0.345496 11.0168 0.242053 11.9012C0.0789632 13.2957 0.0789633 14.7043 0.242053 16.0988C0.345496 16.9832 1.0548 17.6739 1.93198 17.772C3.29547 17.9244 4.70451 17.9244 6.06801 17.772C6.94519 17.6739 7.65449 16.9832 7.75793 16.0988C7.92102 14.7043 7.92102 13.2957 7.75793 11.9012C7.65449 11.0168 6.94519 10.3261 6.06801 10.228Z" fill="white"/>
<path d="M16.068 0.228016C14.7045 0.0756262 13.2955 0.0756262 11.932 0.228016C11.0548 0.326054 10.3455 1.01681 10.2421 1.90124C10.079 3.29566 10.079 4.70434 10.2421 6.09875C10.3455 6.98319 11.0548 7.67394 11.932 7.77198C13.2955 7.92437 14.7045 7.92437 16.068 7.77198C16.9452 7.67394 17.6545 6.98319 17.7579 6.09875C17.921 4.70434 17.921 3.29566 17.7579 1.90124C17.6545 1.01681 16.9452 0.326054 16.068 0.228016Z" fill="white"/>
<path d="M16.068 10.228C14.7045 10.0756 13.2955 10.0756 11.932 10.228C11.0548 10.3261 10.3455 11.0168 10.2421 11.9012C10.079 13.2957 10.079 14.7043 10.2421 16.0988C10.3455 16.9832 11.0548 17.6739 11.932 17.772C13.2955 17.9244 14.7045 17.9244 16.068 17.772C16.9452 17.6739 17.6545 16.9832 17.7579 16.0988C17.921 14.7043 17.921 13.2957 17.7579 11.9012C17.6545 11.0168 16.9452 10.3261 16.068 10.228Z" fill="white"/>
</svg>
