<svg width="40" height="40" viewBox="0 0 40 40" fill="none" xmlns="http://www.w3.org/2000/svg">
<g clip-path="url(#clip0_2_125)">
<path d="M38.4863 36.909C38.3682 37.0874 38.1547 37.3009 37.7278 37.7278C37.3008 38.1548 37.0873 38.3683 36.9089 38.4864C35.8641 39.1783 34.4505 38.8217 33.859 37.7169C33.758 37.5283 33.6713 37.2391 33.498 36.6607C33.3086 36.0287 33.2139 35.7127 33.1956 35.4903C33.0878 34.181 34.1809 33.0879 35.4903 33.1957C35.7127 33.214 36.0287 33.3087 36.6607 33.498C37.239 33.6714 37.5283 33.758 37.7169 33.859C38.8217 34.4506 39.1783 35.8642 38.4863 36.909Z" stroke="#1C274C" stroke-width="1.5" stroke-linecap="round"/>
<path d="M10.1087 3.55393C12.7413 2.03103 15.7979 1.15942 19.058 1.15942C28.9431 1.15942 36.9565 9.17288 36.9565 19.058C36.9565 28.9431 28.9431 36.9565 19.058 36.9565C9.17288 36.9565 1.15942 28.9431 1.15942 19.058C1.15942 15.7979 2.03103 12.7413 3.55393 10.1087" stroke="#1C274C" stroke-width="1.5" stroke-linecap="round"/>
</g>
<defs>
<clipPath id="clip0_2_125">
<rect width="40" height="40" fill="white"/>
</clipPath>
</defs>
</svg>
